<?xml version="1.0" standalone="no"?>
<!DOCTYPE svg PUBLIC "-//W3C//DTD SVG 20010904//EN"
 "http://www.w3.org/TR/2001/REC-SVG-20010904/DTD/svg10.dtd">
<svg version="1.0" xmlns="http://www.w3.org/2000/svg"
 width="250.000000pt" height="50.000000pt" viewBox="0 0 250.000000 50.000000"
 preserveAspectRatio="xMidYMid meet">

<g transform="translate(0.000000,50.000000) scale(0.100000,-0.100000)"
fill="#000000" stroke="none">
<path d="M0 250 l0 -250 1250 0 1250 0 0 250 0 250 -1250 0 -1250 0 0 -250z
m403 178 c22 -11 27 -20 27 -50 0 -21 -4 -38 -10 -38 -5 0 -10 -5 -10 -11 0
-5 4 -8 9 -5 5 3 14 -8 21 -24 11 -26 18 -30 50 -30 32 0 38 -4 42 -24 3 -14
0 -30 -5 -35 -14 -14 -87 -14 -87 -1 0 6 -33 10 -80 10 -44 0 -80 3 -80 8 1
13 27 42 38 42 6 0 14 -9 17 -20 7 -21 25 -28 25 -9 0 7 11 8 30 4 19 -4 30
-3 30 4 0 6 -7 11 -15 11 -8 0 -15 9 -15 19 0 21 -19 31 -55 31 -20 0 -24 5
-23 28 1 15 -2 38 -6 52 -5 20 -2 27 16 36 32 16 50 16 81 2z m125 -85 c2 -8
-5 -13 -17 -13 -12 0 -21 6 -21 16 0 18 31 15 38 -3z m238 -9 c-22 -21 -21
-25 19 -64 42 -40 47 -81 13 -104 -39 -27 -98 -18 -98 15 0 25 8 24 30 -3 15
-19 22 -21 37 -12 30 18 26 47 -12 84 -19 18 -35 40 -35 47 0 16 36 53 51 53
6 0 3 -7 -5 -16z m64 -11 c-1 -26 -1 -27 -12 -8 -6 11 -16 23 -22 27 -6 5 -1
8 12 8 17 0 22 -6 22 -27z m80 -63 c-9 -49 -15 -92 -12 -95 3 -3 -5 -5 -17 -5
-17 0 -20 5 -16 23 15 69 25 149 20 157 -3 6 5 10 18 10 l24 0 -17 -90z m129
40 c6 -28 11 -58 11 -65 0 -22 18 -18 25 6 4 11 9 18 11 16 7 -7 -38 -97 -46
-92 -4 2 -13 36 -20 76 -10 54 -16 67 -22 53 -6 -13 -7 -10 -4 13 3 19 1 33
-7 37 -7 2 0 5 15 5 24 1 27 -4 37 -49z m122 33 c-8 -17 -27 -149 -23 -165 1
-5 -7 -8 -19 -8 -18 0 -20 4 -14 28 4 15 8 53 10 85 5 67 9 77 36 77 16 0 18
-4 10 -17z m163 1 c9 -8 16 -21 16 -28 0 -20 -39 -66 -56 -66 -13 0 -13 2 1
16 23 24 16 79 -10 79 -17 0 -22 -11 -34 -87 -12 -68 -18 -88 -31 -88 -15 0
-15 8 -1 95 l16 95 42 0 c24 0 48 -6 57 -16z m97 -6 c-5 -13 -14 -56 -21 -95
-8 -50 -16 -73 -26 -73 -17 0 -17 4 1 100 7 41 11 78 8 83 -2 4 7 7 21 7 22 0
24 -3 17 -22z m229 0 c-1 -21 -2 -21 -11 -5 -13 21 -55 22 -63 1 -3 -9 -6 -27
-6 -41 0 -22 3 -25 30 -21 25 4 30 1 29 -16 0 -12 -3 -15 -6 -8 -2 6 -17 12
-33 12 -25 0 -28 -4 -34 -45 -5 -29 -12 -45 -22 -45 -17 0 -17 7 0 100 8 41
12 78 10 82 -3 4 20 8 50 8 51 0 56 -2 56 -22z m260 -5 l0 -27 -16 22 c-21 31
-69 30 -90 -3 -9 -13 -18 -41 -20 -62 -9 -76 44 -118 92 -72 13 12 24 18 24
13 -1 -22 -20 -36 -56 -41 -59 -8 -94 24 -94 84 0 38 5 50 34 79 29 29 41 34
80 34 43 0 46 -2 46 -27z m158 10 c11 -20 -2 -63 -18 -63 -18 0 -11 -36 15
-74 l24 -36 -23 0 c-20 0 -28 9 -42 45 -17 46 -37 55 -42 19 -7 -50 -14 -64
-28 -64 -12 0 -15 6 -11 23 15 63 27 149 22 157 -4 6 14 10 44 10 38 0 53 -4
59 -17z m136 0 c3 -10 8 -36 12 -58 4 -22 10 -47 14 -55 5 -9 3 -26 -5 -39
-15 -28 -14 -29 -37 74 -11 55 -13 57 -19 30 -5 -23 -7 -20 -5 17 1 38 5 48
18 48 9 0 19 -8 22 -17z m126 -12 c-4 -17 -11 -59 -15 -95 -6 -53 -11 -66 -25
-66 -16 0 -16 6 -5 77 10 64 10 73 -2 58 -7 -11 -13 -23 -13 -29 0 -5 -3 -7
-6 -4 -11 12 36 88 56 88 16 0 17 -4 10 -29z m-2117 -42 c12 -7 25 -17 29 -23
13 -18 9 -53 -7 -66 -12 -10 -15 -9 -15 4 0 9 -6 19 -14 22 -8 3 -12 13 -8 26
3 15 1 19 -9 16 -8 -3 -13 -12 -11 -21 1 -8 -2 -18 -8 -22 -5 -3 -10 -15 -10
-27 0 -17 -2 -18 -15 -8 -23 19 -19 76 7 94 27 19 33 19 61 5z m774 -46 c-3
-10 -5 -4 -5 12 0 17 2 24 5 18 2 -7 2 -21 0 -30z m1170 -15 c-3 -7 -5 -2 -5
12 0 14 2 19 5 13 2 -7 2 -19 0 -25z m-1181 -56 c-11 -10 -15 4 -8 28 l7 25 3
-23 c2 -13 1 -26 -2 -30z m504 18 c0 -15 -6 -20 -27 -19 -28 0 -28 1 -5 11 12
6 22 15 22 20 0 4 2 8 5 8 3 0 5 -9 5 -20z m154 -4 c-3 -9 -15 -16 -26 -16
-19 0 -19 1 3 19 27 22 32 21 23 -3z m519 4 c3 -12 0 -20 -8 -20 -8 0 -11 8
-8 20 3 11 7 20 8 20 1 0 5 -9 8 -20z m-1828 -46 c7 -52 -1 -67 -36 -62 -18 2
-25 10 -27 31 -2 15 1 27 7 27 6 0 11 8 11 18 0 22 8 32 26 32 6 0 15 -20 19
-46z"/>
<path d="M350 340 c0 -5 4 -10 9 -10 6 0 13 5 16 10 3 6 -1 10 -9 10 -9 0 -16
-4 -16 -10z"/>
<path d="M1995 304 c-3 -20 -4 -39 0 -42 13 -13 40 16 43 47 3 25 0 31 -16 31
-15 0 -22 -9 -27 -36z"/>
</g>
</svg>
